# xmcd
#
# Track frame offsets:
#	150
#	10793
#	42883
#	81539
#	89922
#	124060
#	155454
#	170503
#	196402
#	235462
#	275754
#	282876
#
# Disc length: 4291 seconds
#
# Revision: 1
# Processed by: cddbd v1.5.2PL0 Copyright (c) Steve Scherf et al.
# Submitted via: audiograbber 1.83.01
#
DISCID=ac10c10c
DTITLE=Richard Boulger - Blues Twilight
DYEAR=2007
DGENRE=Blues
TTITLE0=The Eternal One
TTITLE1=Blues Twilight
TTITLE2=Letting Go
TTITLE3=For Souls Past
TTITLE4=Miss Sarah
TTITLE5=A Flower For Mary
TTITLE6=Perceptions
TTITLE7=Have You Met Mr. Jones
TTITLE8=Tears
TTITLE9=The Other Side
TTITLE10=From The Night
TTITLE11=Time Flies
EXTD=
EXTT0=
EXTT1=
EXTT2=
EXTT3=
EXTT4=
EXTT5=
EXTT6=
EXTT7=
EXTT8=
EXTT9=
EXTT10=
EXTT11=
PLAYORDER=
